<svg t="1627397655118" class="icon" viewBox="0 0 1024 1024" version="1.1" xmlns="http://www.w3.org/2000/svg" p-id="4994" width="200" height="200"><path d="M832 64 192 64C121.6 64 64 121.6 64 192l0 640c0 70.4 57.6 128 128 128l640 0c70.4 0 128-57.6 128-128L960 192C960 121.6 902.4 64 832 64zM762.24 759.04c-12.8 12.8-33.28 12.8-45.44 0L513.92 560l-202.24 199.04c-12.8 12.8-33.28 12.8-45.44 0-12.8-12.8-12.8-32.64 0-45.44l224-220.16c6.4-6.4 15.36-9.6 24.32-8.96C522.88 483.84 531.2 487.04 538.24 493.44l224 220.16C775.04 726.4 775.04 746.24 762.24 759.04zM762.24 503.04c-12.8 12.8-33.28 12.8-45.44 0L513.92 304 311.68 503.04c-12.8 12.8-33.28 12.8-45.44 0-12.8-12.8-12.8-32.64 0-45.44l224-220.16c6.4-6.4 15.36-9.6 24.32-8.96C522.88 227.84 531.2 231.04 538.24 237.44l224 220.16C775.04 470.4 775.04 490.24 762.24 503.04z" p-id="4995" fill="#ffffff"></path></svg>